<svg width="68" height="68" viewBox="0 0 68 68" fill="none" xmlns="http://www.w3.org/2000/svg">
<ellipse cx="65.1985" cy="34.7212" rx="1.80667" ry="2.00422" transform="rotate(135.166 65.1985 34.7212)" fill="#B2B2B2"/>
<ellipse cx="57.5113" cy="42.364" rx="1.80667" ry="2.00422" transform="rotate(135.166 57.5113 42.364)" fill="#B2B2B2"/>
<ellipse cx="49.8241" cy="50.0067" rx="1.80667" ry="2.00422" transform="rotate(135.166 49.8241 50.0067)" fill="#B2B2B2"/>
<ellipse cx="42.1368" cy="57.6495" rx="1.80667" ry="2.00422" transform="rotate(135.166 42.1368 57.6495)" fill="#B2B2B2"/>
<ellipse cx="34.4495" cy="65.2922" rx="1.80667" ry="2.00422" transform="rotate(135.166 34.4495 65.2922)" fill="#B2B2B2"/>
<ellipse cx="57.4266" cy="26.904" rx="1.80667" ry="2.00422" transform="rotate(135.166 57.4266 26.904)" fill="#B2B2B2"/>
<ellipse cx="49.7394" cy="34.5468" rx="1.80667" ry="2.00422" transform="rotate(135.166 49.7394 34.5468)" fill="#B2B2B2"/>
<ellipse cx="42.0521" cy="42.1895" rx="1.80667" ry="2.00422" transform="rotate(135.166 42.0521 42.1895)" fill="#B2B2B2"/>
<ellipse cx="34.3649" cy="49.8323" rx="1.80667" ry="2.00422" transform="rotate(135.166 34.3649 49.8323)" fill="#B2B2B2"/>
<ellipse cx="27.3841" cy="58.1857" rx="1.80667" ry="2.00422" transform="rotate(135.166 27.3841 58.1857)" fill="#B2B2B2"/>
<ellipse cx="26.5929" cy="42.0151" rx="1.80667" ry="2.00422" transform="rotate(135.166 26.5929 42.0151)" fill="#B2B2B2"/>
<ellipse cx="19.5276" cy="34.9086" rx="1.80667" ry="2.00422" transform="rotate(135.166 19.5276 34.9086)" fill="#B2B2B2"/>
<ellipse cx="12.5469" cy="43.262" rx="1.80667" ry="2.00422" transform="rotate(135.166 12.5469 43.262)" fill="#B2B2B2"/>
<ellipse cx="11.0491" cy="26.3807" rx="1.80667" ry="2.00422" transform="rotate(135.166 11.0491 26.3807)" fill="#B2B2B2"/>
<ellipse cx="3.36187" cy="34.0235" rx="1.80667" ry="2.00422" transform="rotate(135.166 3.36187 34.0235)" fill="#B2B2B2"/>
<ellipse cx="18.9057" cy="49.6579" rx="1.80667" ry="2.00422" transform="rotate(135.166 18.9057 49.6579)" fill="#B2B2B2"/>
</svg>
