<svg width="68" height="69" viewBox="0 0 68 69" fill="none" xmlns="http://www.w3.org/2000/svg">
<ellipse cx="65.1586" cy="34.8499" rx="1.80667" ry="2.00422" transform="rotate(135.166 65.1586 34.8499)" fill="#B2B2B2"/>
<ellipse cx="57.4713" cy="42.4926" rx="1.80667" ry="2.00422" transform="rotate(135.166 57.4713 42.4926)" fill="#B2B2B2"/>
<ellipse cx="49.7841" cy="50.1354" rx="1.80667" ry="2.00422" transform="rotate(135.166 49.7841 50.1354)" fill="#B2B2B2"/>
<ellipse cx="42.0969" cy="57.7781" rx="1.80667" ry="2.00422" transform="rotate(135.166 42.0969 57.7781)" fill="#B2B2B2"/>
<ellipse cx="34.4095" cy="65.4209" rx="1.80667" ry="2.00422" transform="rotate(135.166 34.4095 65.4209)" fill="#B2B2B2"/>
<ellipse cx="57.3866" cy="27.0326" rx="1.80667" ry="2.00422" transform="rotate(135.166 57.3866 27.0326)" fill="#B2B2B2"/>
<ellipse cx="49.6994" cy="34.6754" rx="1.80667" ry="2.00422" transform="rotate(135.166 49.6994 34.6754)" fill="#B2B2B2"/>
<ellipse cx="42.0121" cy="42.3181" rx="1.80667" ry="2.00422" transform="rotate(135.166 42.0121 42.3181)" fill="#B2B2B2"/>
<ellipse cx="34.3249" cy="49.9609" rx="1.80667" ry="2.00422" transform="rotate(135.166 34.3249 49.9609)" fill="#B2B2B2"/>
<ellipse cx="27.3442" cy="58.3143" rx="1.80667" ry="2.00422" transform="rotate(135.166 27.3442 58.3143)" fill="#B2B2B2"/>
<ellipse cx="26.553" cy="42.1437" rx="1.80667" ry="2.00422" transform="rotate(135.166 26.553 42.1437)" fill="#B2B2B2"/>
<ellipse cx="19.4876" cy="35.0372" rx="1.80667" ry="2.00422" transform="rotate(135.166 19.4876 35.0372)" fill="#B2B2B2"/>
<ellipse cx="12.5069" cy="43.3906" rx="1.80667" ry="2.00422" transform="rotate(135.166 12.5069 43.3906)" fill="#B2B2B2"/>
<ellipse cx="11.0091" cy="26.5094" rx="1.80667" ry="2.00422" transform="rotate(135.166 11.0091 26.5094)" fill="#B2B2B2"/>
<ellipse cx="3.32189" cy="34.1521" rx="1.80667" ry="2.00422" transform="rotate(135.166 3.32189 34.1521)" fill="#B2B2B2"/>
<ellipse cx="18.8657" cy="49.7865" rx="1.80667" ry="2.00422" transform="rotate(135.166 18.8657 49.7865)" fill="#B2B2B2"/>
</svg>
