<svg width="442" height="442" viewBox="0 0 442 442" fill="none" xmlns="http://www.w3.org/2000/svg">
<path d="M136.294 212.816L94.0243 238.316C93.9466 238.437 94.6249 120.481 95.0552 107.816C95.4854 95.1516 112.128 86.9975 123.922 90.3163C135.404 93.5472 201.315 126.317 204.242 126.846C204.274 126.836 204.306 126.826 204.338 126.816C204.354 126.851 204.321 126.86 204.242 126.846C184.518 132.874 179.502 140.747 180.111 161.816L136.294 138.316V212.816Z" fill="#FCFCFC"/>
<path d="M245.062 58.8163V105.316C218.569 92.7559 164.641 68.5811 157.945 62.3163C155.846 60.3528 149.181 46.8163 158.976 34.8163C166.811 25.2163 180.111 27.8163 185.781 30.3163L245.062 58.8163Z" fill="#FCFCFC"/>
<path d="M191.961 183L94.0187 240.5C93.5032 253.5 103.622 269.13 127.01 266.5C164.125 246.167 240.726 204.2 250.211 199C259.696 193.8 265.848 187.5 267.738 185C274.954 172 269.284 162.5 266.191 158.5C263.098 154.5 246.259 145.833 236.808 141C252.789 173.5 222.375 197.5 191.961 183Z" fill="#FF4D00"/>
<path d="M296.089 216L161.547 289.5C155.948 292.918 153.363 305.554 160.001 316.5C165.156 325 180.62 328 184.744 326L327.019 247.5L327.224 247.393C341.521 239.965 348.669 236.25 348.669 223V105.5C348.669 83.5 304.337 83 304.337 105.5C304.509 135 304.75 195.8 304.337 203C303.925 210.2 298.667 214.666 296.089 216Z" fill="#FF4D00"/>
<path d="M13.1175 423C11.8562 423 10.9175 422.707 10.3015 422.12C9.71486 421.504 9.42153 420.565 9.42153 419.304V367.12C9.42153 365.829 9.71486 364.891 10.3015 364.304C10.9175 363.717 11.8562 363.424 13.1175 363.424C14.4082 363.424 15.3469 363.717 15.9335 364.304C16.5202 364.891 16.8135 365.829 16.8135 367.12V419.304C16.8135 420.565 16.5202 421.504 15.9335 422.12C15.3469 422.707 14.4082 423 13.1175 423ZM38.8128 423C36.3488 423 35.1168 421.768 35.1168 419.304V367.032C35.1168 364.568 36.3488 363.336 38.8128 363.336C40.0742 363.336 41.3062 364.069 42.5088 365.536L77.8848 411.12H76.0368V367.032C76.0368 364.568 77.2688 363.336 79.7328 363.336C82.1968 363.336 83.4288 364.568 83.4288 367.032V419.304C83.4288 421.768 82.1968 423 79.7328 423C78.4128 423 77.1808 422.267 76.0368 420.8L40.6608 375.216H42.5088V419.304C42.5088 421.768 41.2768 423 38.8128 423ZM105.414 423C104.153 423 103.214 422.707 102.598 422.12C102.012 421.504 101.718 420.565 101.718 419.304V367.12C101.718 365.829 102.012 364.891 102.598 364.304C103.214 363.717 104.153 363.424 105.414 363.424C106.705 363.424 107.644 363.717 108.23 364.304C108.817 364.891 109.11 365.829 109.11 367.12V419.304C109.11 420.565 108.817 421.504 108.23 422.12C107.644 422.707 106.705 423 105.414 423ZM145.278 423C144.046 423 143.122 422.692 142.506 422.076C141.89 421.46 141.582 420.536 141.582 419.304V370.816H124.51C123.278 370.816 122.354 370.508 121.738 369.892C121.122 369.276 120.814 368.352 120.814 367.12C120.814 365.888 121.122 364.964 121.738 364.348C122.354 363.732 123.278 363.424 124.51 363.424H166.046C167.278 363.424 168.202 363.732 168.818 364.348C169.434 364.964 169.742 365.888 169.742 367.12C169.742 368.352 169.434 369.276 168.818 369.892C168.202 370.508 167.278 370.816 166.046 370.816H148.974V419.304C148.974 420.477 148.651 421.387 148.006 422.032C147.39 422.677 146.48 423 145.278 423ZM226.74 423C220.023 423 215.051 421.401 211.824 418.204C208.627 414.977 207.028 410.005 207.028 403.288V383.048C207.028 376.272 208.627 371.285 211.824 368.088C215.022 364.861 219.964 363.277 226.652 363.336H237.3C242.815 363.336 247.024 364.48 249.928 366.768C252.832 369.027 254.519 372.605 254.988 377.504C255.164 378.736 254.93 379.675 254.284 380.32C253.639 380.965 252.7 381.288 251.468 381.288C249.239 381.288 247.948 380.056 247.596 377.592C247.303 374.893 246.364 373.075 244.78 372.136C243.226 371.197 240.732 370.728 237.3 370.728H226.652C223.543 370.699 221.094 371.051 219.304 371.784C217.544 372.517 216.283 373.793 215.52 375.612C214.787 377.401 214.42 379.88 214.42 383.048V403.288C214.42 406.427 214.787 408.891 215.52 410.68C216.283 412.469 217.559 413.745 219.348 414.508C221.138 415.241 223.602 415.608 226.74 415.608H237.3C240.732 415.608 243.226 415.139 244.78 414.2C246.364 413.232 247.303 411.413 247.596 408.744C247.948 406.28 249.239 405.048 251.468 405.048C252.7 405.048 253.639 405.371 254.284 406.016C254.93 406.661 255.164 407.6 254.988 408.832C254.519 413.76 252.832 417.353 249.928 419.612C247.024 421.871 242.815 423 237.3 423H226.74ZM288.014 423C281.296 423 276.324 421.401 273.098 418.204C269.9 414.977 268.302 410.005 268.302 403.288V382.96C268.302 376.184 269.915 371.212 273.142 368.044C276.368 364.847 281.326 363.277 288.014 363.336H298.574C305.32 363.336 310.292 364.935 313.49 368.132C316.687 371.329 318.286 376.301 318.286 383.048V403.288C318.286 410.005 316.687 414.977 313.49 418.204C310.292 421.401 305.32 423 298.574 423H288.014ZM288.014 415.608H298.574C301.712 415.608 304.176 415.241 305.966 414.508C307.755 413.745 309.016 412.469 309.75 410.68C310.512 408.891 310.894 406.427 310.894 403.288V383.048C310.894 379.939 310.512 377.489 309.75 375.7C309.016 373.911 307.755 372.635 305.966 371.872C304.176 371.109 301.712 370.728 298.574 370.728H288.014C284.904 370.699 282.455 371.051 280.666 371.784C278.876 372.517 277.6 373.779 276.838 375.568C276.075 377.357 275.694 379.821 275.694 382.96V403.288C275.694 406.427 276.06 408.891 276.794 410.68C277.556 412.469 278.832 413.745 280.622 414.508C282.411 415.241 284.875 415.608 288.014 415.608ZM338.133 423C335.669 423 334.437 421.768 334.437 419.304V367.032C334.437 364.568 335.669 363.336 338.133 363.336H359.341C366.997 363.336 372.629 365.155 376.237 368.792C379.874 372.4 381.693 378.032 381.693 385.688V400.648C381.693 408.304 379.889 413.951 376.281 417.588C372.702 421.196 367.056 423 359.341 423H338.133ZM341.829 415.608H359.341C363.096 415.608 366.058 415.153 368.229 414.244C370.429 413.305 371.984 411.751 372.893 409.58C373.832 407.38 374.301 404.403 374.301 400.648V385.688C374.301 381.963 373.832 379.015 372.893 376.844C371.984 374.644 370.429 373.075 368.229 372.136C366.058 371.197 363.096 370.728 359.341 370.728H341.829V415.608ZM401.555 423C399.091 423 397.859 421.768 397.859 419.304V367.032C397.859 364.568 399.091 363.336 401.555 363.336H433.147C435.611 363.336 436.843 364.568 436.843 367.032C436.843 369.496 435.611 370.728 433.147 370.728H405.251V389.208H422.763C425.227 389.208 426.459 390.44 426.459 392.904C426.459 395.368 425.227 396.6 422.763 396.6H405.251V415.608H433.147C435.611 415.608 436.843 416.84 436.843 419.304C436.843 421.768 435.611 423 433.147 423H401.555Z" fill="#FDFDFD"/>
</svg>
